<svg width="32" height="32" viewBox="0 0 32 32" fill="none" xmlns="http://www.w3.org/2000/svg">
<path d="M17.6101 16L22.4701 11.14C22.6339 10.9487 22.7195 10.7026 22.7098 10.4509C22.7 10.1993 22.5957 9.96053 22.4176 9.78244C22.2395 9.60434 22.0008 9.50001 21.7491 9.49029C21.4974 9.48057 21.2514 9.56618 21.0601 9.73L16.2001 14.54L11.3101 9.65C11.1188 9.48618 10.8727 9.40057 10.621 9.41029C10.3693 9.42001 10.1306 9.52434 9.95249 9.70244C9.7744 9.88053 9.67007 10.1193 9.66035 10.3709C9.65062 10.6226 9.73623 10.8687 9.90006 11.06L14.7801 16L10.0001 20.72C9.89537 20.8096 9.81035 20.92 9.75033 21.044C9.69031 21.1681 9.65658 21.3032 9.65126 21.4409C9.64594 21.5787 9.66914 21.716 9.71942 21.8443C9.76969 21.9727 9.84595 22.0892 9.94341 22.1867C10.0409 22.2841 10.1574 22.3604 10.2857 22.4106C10.4141 22.4609 10.5514 22.4841 10.6891 22.4788C10.8268 22.4735 10.962 22.4398 11.086 22.3797C11.2101 22.3197 11.3204 22.2347 11.4101 22.13L16.1801 17.36L20.9201 22.1C21.1114 22.2638 21.3574 22.3494 21.6091 22.3397C21.8608 22.33 22.0995 22.2257 22.2776 22.0476C22.4557 21.8695 22.56 21.6307 22.5698 21.3791C22.5795 21.1274 22.4939 20.8813 22.3301 20.69L17.6101 16Z" fill="#093a40ff"/>
<path d="M16 32C12.8355 32 9.74207 31.0616 7.11088 29.3035C4.4797 27.5454 2.42894 25.0466 1.21793 22.1229C0.0069325 19.1993 -0.309921 15.9823 0.307443 12.8786C0.924806 9.77487 2.44866 6.92394 4.6863 4.6863C6.92394 2.44866 9.77487 0.924806 12.8786 0.307443C15.9823 -0.309921 19.1993 0.0069325 22.1229 1.21793C25.0466 2.42894 27.5454 4.4797 29.3035 7.11088C31.0616 9.74207 32 12.8355 32 16C32 20.2435 30.3143 24.3131 27.3137 27.3137C24.3131 30.3143 20.2435 32 16 32ZM16 2.00001C13.2311 2.00001 10.5243 2.82109 8.22202 4.35943C5.91974 5.89777 4.12532 8.08427 3.06569 10.6424C2.00607 13.2006 1.72882 16.0155 2.26901 18.7313C2.80921 21.447 4.14258 23.9416 6.10051 25.8995C8.05845 27.8574 10.553 29.1908 13.2687 29.731C15.9845 30.2712 18.7994 29.9939 21.3576 28.9343C23.9157 27.8747 26.1022 26.0803 27.6406 23.778C29.1789 21.4757 30 18.7689 30 16C30 12.287 28.525 8.72602 25.8995 6.10051C23.274 3.475 19.713 2.00001 16 2.00001Z" fill="#093a40ff"/>
</svg>
