<!-- Generator: Adobe Illustrator 25.2.0, SVG Export Plug-In  -->
<svg version="1.1" xmlns="http://www.w3.org/2000/svg" xmlns:xlink="http://www.w3.org/1999/xlink" x="0px" y="0px"  viewBox="0 0 512 426.67" style="overflow:visible;enable-background:new 0 0 512 426.67;" xml:space="preserve"
	>
<style type="text/css">
	.st0{fill:#0F6F7B;}
</style>
<defs>
</defs>
<g>
	<g>
		<path class="st0" d="M504.17,196.82L269.5,4.82c-6.36-5.23-15.19-6.29-22.66-2.77c-7.42,3.54-12.18,11.05-12.18,19.28v146.99
			L34.84,4.82C28.46-0.4,19.65-1.47,12.18,2.05C4.76,5.59,0,13.1,0,21.34v384c0,8.23,4.76,15.74,12.18,19.29
			c2.92,1.36,6.06,2.05,9.15,2.05c4.84,0,9.62-1.64,13.5-4.82l199.83-163.5v146.99c0,8.23,4.76,15.74,12.18,19.29
			c2.92,1.36,6.06,2.05,9.15,2.05c4.84,0,9.62-1.64,13.5-4.82l234.67-192c4.95-4.05,7.83-10.11,7.83-16.51
			S509.12,200.88,504.17,196.82z"/>
	</g>
</g>
</svg>
