<svg width="20" height="20" viewBox="0 0 20 20" fill="none" xmlns="http://www.w3.org/2000/svg">
<path fill-rule="evenodd" clip-rule="evenodd" d="M20 16H5.012C4.608 16.01 4.136 16.151 4.024 16.727C4.009 16.809 4 16.899 4 17C4 17.806 4.55 17.988 5.012 18H20V20H5C3.794 20 2 19.201 2 17V9.99987H5.00775L3.66979 11.1456C3.61556 11.1921 3.57254 11.2472 3.54319 11.308C3.51385 11.3687 3.49874 11.4338 3.49874 11.4995C3.49874 11.5652 3.51385 11.6303 3.54319 11.691C3.57254 11.7518 3.61556 11.8069 3.66979 11.8534C3.72401 11.8999 3.78839 11.9368 3.85925 11.9619C3.9301 11.9871 4.00603 12 4.08273 12C4.15942 12 4.23535 11.9871 4.30621 11.9619C4.37706 11.9368 4.44144 11.8999 4.49567 11.8534L6.82865 9.85391C6.88297 9.80748 6.92606 9.75231 6.95546 9.69158C6.98486 9.63085 7 9.56575 7 9.5C7 9.43425 6.98486 9.36915 6.95546 9.30842C6.92606 9.24769 6.88297 9.19252 6.82865 9.14609L4.49567 7.14659C4.38615 7.05273 4.23761 7 4.08273 7C3.92785 7 3.7793 7.05273 3.66979 7.14659C3.56027 7.24046 3.49874 7.36776 3.49874 7.5005C3.49874 7.63325 3.56027 7.76055 3.66979 7.85442L5.00775 9.00013H2V3C2 0.799 3.794 0 5 0H18C19.103 0 20 0.896999 20 2V16ZM2 9.00013H0.583248C0.428558 9.00013 0.280209 9.0528 0.17083 9.14654C0.0614471 9.24028 0 9.36742 0 9.5C0 9.63258 0.0614471 9.75972 0.17083 9.85346C0.280209 9.94721 0.428558 9.99987 0.583248 9.99987H2V9.00013ZM9.2105 5.00065C8.6256 5.00065 8.06423 5.23107 7.648 5.642C7.44139 5.84064 7.27703 6.07897 7.16479 6.3427C7.05256 6.60642 6.99475 6.8901 6.99484 7.17671C6.99494 7.46333 7.05293 7.74696 7.16534 8.01062C7.27775 8.27427 7.44226 8.51249 7.649 8.711L10.998 12L14.346 8.711C14.5526 8.51235 14.7169 8.27405 14.8291 8.01038C14.9414 7.7467 14.9992 7.46307 14.9992 7.1765C14.9992 6.88993 14.9414 6.60631 14.8291 6.34263C14.7169 6.07895 14.5526 5.84065 14.346 5.642C13.9296 5.231 13.3681 5.00056 12.783 5.00056C12.1979 5.00056 11.6364 5.231 11.22 5.642L10.997 5.861L10.773 5.642C10.3568 5.23107 9.79541 5.00065 9.2105 5.00065Z" fill="#093a40ff"/>
</svg>
