<svg id="icons" enable-background="new 0 0 64 64" height="512" viewBox="0 0 64 64" width="512" xmlns="http://www.w3.org/2000/svg"><path d="m32.82 8.01c-.46.59-.82.99-.82.99s-.36-.4-.83-.99c-.62-.78-1.44-1.91-1.87-2.89-.19-.41-.3-.8-.3-1.12 0-1.66 1.34-3 3-3s3 1.34 3 3c0 .32-.11.71-.3 1.12-.43.98-1.25 2.11-1.88 2.89z" fill="#656d78"/><path d="m32 44v16c-4.73 0-9.17-1.26-12.99-3.49l7.99-13.84.01-.01c1.47.85 3.17 1.34 4.99 1.34z" fill="#8cc152"/><path d="m31.17 8.01c.47.59.83.99.83.99v15c-1.82 0-3.53.49-5 1.34l-8-13.85c3.6-2.1 7.75-3.34 12.17-3.48z" fill="#ffce54"/><path d="m27.01 42.66-.01.01-7.99 13.84c-3.95-2.27-7.25-5.56-9.52-9.51l13.85-7.99h.01c.88 1.52 2.14 2.78 3.66 3.65z" fill="#ed5565"/><path d="m23.33 29 .01.01c-.85 1.47-1.34 3.17-1.34 4.99v.01h-15.99-.01v-.01c0-4.73 1.26-9.17 3.48-12.99h.01z" fill="#8cc152"/><path d="m32 60c4.73 0 9.17-1.26 12.99-3.49 3.95-2.27 7.25-5.56 9.52-9.51 2.22-3.82 3.49-8.26 3.49-12.99v-.01c0-4.73-1.26-9.17-3.48-12.99-2.279-3.95-5.569-7.24-9.52-9.52-3.6-2.09-7.75-3.34-12.18-3.48.63-.78 1.45-1.91 1.88-2.89 14.75 1.37 26.3 13.77 26.3 28.88 0 16.02-12.98 29-29 29s-29-12.98-29-29c0-15.11 11.55-27.51 26.3-28.88.431.979 1.25 2.11 1.87 2.89-4.42.14-8.57 1.38-12.17 3.48-3.95 2.27-7.24 5.569-9.52 9.52-2.22 3.82-3.48 8.26-3.48 12.99v.01c0 4.73 1.27 9.17 3.49 12.99 2.27 3.95 5.569 7.24 9.52 9.51 3.82 2.23 8.26 3.49 12.99 3.49z" fill="#e6e9ed"/><path d="m19 11.49 8 13.85c-1.52.88-2.79 2.15-3.66 3.67l-.01-.01-13.84-7.99h-.01c2.28-3.95 5.57-7.25 9.52-9.52z" fill="#ed5565"/><path d="m58 34.01c0 4.73-1.27 9.17-3.49 12.99l-13.85-8c.85-1.47 1.34-3.17 1.34-4.99z" fill="#8cc152"/><path d="m54.52 21.01h-.01l-13.85 8c-.87-1.52-2.141-2.79-3.66-3.66l8-13.859c3.95 2.279 7.24 5.569 9.52 9.519z" fill="#ed5565"/><path d="m6.01 34.01h15.99c0 1.82.49 3.53 1.35 5h-.01l-13.85 7.99c-2.22-3.82-3.49-8.26-3.49-12.99z" fill="#ffce54"/><path d="m45 11.49-8 13.86c-1.47-.86-3.18-1.35-5-1.35v-15s.36-.4.82-.99c4.43.14 8.58 1.39 12.18 3.48z" fill="#8cc152"/><path d="m40.66 39 13.85 8c-2.27 3.95-5.569 7.24-9.52 9.51l-7.99-13.85c1.52-.88 2.78-2.14 3.66-3.66z" fill="#ed5565"/><path d="m37 42.66 7.99 13.85c-3.82 2.23-8.26 3.49-12.99 3.49v-16c1.82 0 3.53-.49 5-1.34z" fill="#ffce54"/><path d="m58 34v.01h-16v-.01c0-1.82-.49-3.52-1.34-4.99l13.85-8h.01c2.22 3.82 3.48 8.26 3.48 12.99z" fill="#ffce54"/><g fill="#e6e9ed"><path d="m42 34v.01c0 1.82-.49 3.521-1.34 4.99-.88 1.52-2.141 2.78-3.66 3.66-1.47.85-3.18 1.34-5 1.34s-3.52-.49-4.99-1.34c-1.52-.87-2.779-2.13-3.66-3.65-.859-1.47-1.35-3.18-1.35-5v-.01c0-1.82.49-3.52 1.34-4.99.87-1.52 2.141-2.79 3.66-3.67 1.47-.85 3.18-1.34 5-1.34s3.53.49 5 1.35c1.52.87 2.79 2.141 3.66 3.66.85 1.47 1.34 3.17 1.34 4.99z"/><path d="m55.212 28.789c-.553 0-1.005-.447-1.005-1s.442-1 .994-1h.011c.552 0 1 .447 1 1s-.448 1-1 1z"/><path d="m8.847 41.211c-.553 0-1.005-.447-1.005-1s.442-1 .994-1h.011c.552 0 1 .447 1 1s-.449 1-1 1z"/><path d="m49.001 18.029c-.553 0-1.005-.447-1.005-1s.442-1 .994-1h.011c.552 0 1 .447 1 1s-.448 1-1 1z"/><path d="m15.059 51.971c-.553 0-1.005-.447-1.005-1s.442-1 .994-1h.011c.552 0 1 .447 1 1s-.449 1-1 1z"/><path d="m38.242 11.816c-.553 0-1.005-.447-1.005-1s.442-1 .994-1h.011c.552 0 1 .447 1 1s-.448 1-1 1z"/><path d="m25.817 58.182c-.553 0-1.005-.447-1.005-1s.442-1 .994-1h.011c.552 0 1 .447 1 1s-.448 1-1 1z"/><path d="m25.818 11.816c-.553 0-1.005-.447-1.005-1s.442-1 .994-1h.011c.552 0 1 .447 1 1s-.448 1-1 1z"/><path d="m38.241 58.182c-.553 0-1.005-.447-1.005-1s.442-1 .994-1h.011c.552 0 1 .447 1 1s-.448 1-1 1z"/><path d="m15.059 18.027c-.553 0-1.005-.447-1.005-1s.442-1 .994-1h.011c.552 0 1 .447 1 1s-.449 1-1 1z"/><path d="m49.001 51.971c-.553 0-1.005-.447-1.005-1s.442-1 .994-1h.011c.552 0 1 .447 1 1s-.448 1-1 1z"/><path d="m8.847 28.787c-.553 0-1.005-.447-1.005-1s.442-1 .994-1h.011c.552 0 1 .447 1 1s-.449 1-1 1z"/><path d="m55.213 41.211c-.553 0-1.005-.447-1.005-1s.442-1 .994-1h.011c.552 0 1 .447 1 1s-.448 1-1 1z"/></g><path d="m36.997 33h-9.997c-.553 0-1-.447-1-1s.447-1 1-1h9.997c.553 0 1 .447 1 1s-.447 1-1 1z" fill="#ccd1d9"/><path d="m36.997 36h-9.997c-.553 0-1-.447-1-1s.447-1 1-1h9.997c.553 0 1 .447 1 1s-.447 1-1 1z" fill="#ccd1d9"/><path d="m34 39h-4.003c-.553 0-1-.447-1-1s.447-1 1-1h4.003c.553 0 1 .447 1 1s-.447 1-1 1z" fill="#ccd1d9"/></svg>